<svg width="35" height="28" viewBox="0 0 35 28" fill="none" xmlns="http://www.w3.org/2000/svg">
<path d="M13.261 27.3146L0.735855 15.6478C0.242677 15.1957 1.66124e-06 14.5977 1.66124e-06 13.9998C1.66124e-06 13.4019 0.244634 12.8054 0.733898 12.3504L13.2591 0.683603C14.2376 -0.227867 15.8228 -0.227867 16.8013 0.683603C17.7799 1.59507 17.7799 3.07165 16.8013 3.98312L8.54843 11.6665H32.5654C33.9502 11.6665 35 12.7114 35 13.9342C35 15.157 33.9502 16.3332 32.5654 16.3332H8.54843L16.7994 24.0187C17.7779 24.9302 17.7779 26.4067 16.7994 27.3182C15.8208 28.2297 14.2395 28.226 13.261 27.3146Z" fill="black"/>
</svg>
